<?xml version="1.0" encoding="UTF-8"?><svg id="Layer_1" xmlns="http://www.w3.org/2000/svg" xmlns:xlink="http://www.w3.org/1999/xlink" viewBox="0 0 1920 394.17"><defs><style>.cls-1{fill:url(#linear-gradient);}</style><linearGradient id="linear-gradient" x1="0" y1="197.08" x2="1920" y2="197.08" gradientUnits="userSpaceOnUse"><stop offset="0" stop-color="#fff33b"/><stop offset=".07" stop-color="#fee62d"/><stop offset=".21" stop-color="#fdd51b"/><stop offset=".35" stop-color="#fdca0f"/><stop offset=".5" stop-color="#fdc70c"/><stop offset=".67" stop-color="#faa832"/><stop offset="1" stop-color="#faa833"/></linearGradient></defs><path class="cls-1" d="M1920,297c-43.99,19.1-206.68,87.16-368,96-69.89,3.83-135-3-135-3-17.74-2.44-45.38-6.44-79.04-12.21-62.23-10.66-103-20.15-315.96-72.79,0,0-108.11-26.72-204.33-45.6-15.89-3.12-31.84-5.89-31.84-5.89-4.63-.81-9.57-1.64-14.82-2.5-99.93-16.36-183.42-20.37-240.16-21.05-24.36-.29-51.03-.61-83.53,.86,0,0-17.79,.83-35.31,2.2-106.29,8.28-186,31-186,31C127.91,291.96,48.03,342.83,0,378V0H1920"/></svg>